<svg viewBox="0 0 176 50" fill="none"
  xmlns="http://www.w3.org/2000/svg">
  <path d="M176 35.5162V29.2944H175.331V34.2718L172.003 29.2944H171.368V35.5162H172.038V30.5251L175.366 35.522L176 35.5162ZM168.459 32.4053C168.459 33.708 168.416 34.128 168.019 34.5304C167.877 34.6722 167.708 34.7846 167.522 34.8614C167.336 34.9381 167.137 34.9776 166.935 34.9776C166.734 34.9776 166.534 34.9381 166.349 34.8614C166.163 34.7846 165.994 34.6722 165.852 34.5304C165.46 34.128 165.411 33.708 165.411 32.4053C165.411 31.1026 165.456 30.6807 165.852 30.2782C166.139 29.9929 166.529 29.8326 166.935 29.8326C167.342 29.8326 167.731 29.9929 168.019 30.2782C168.41 30.6807 168.459 31.1007 168.459 32.4053ZM169.129 32.4053C169.129 31.0832 169.129 30.461 168.542 29.8777C168.112 29.4627 167.537 29.2305 166.938 29.2305C166.339 29.2305 165.764 29.4627 165.335 29.8777C164.747 30.461 164.747 31.0754 164.747 32.4053C164.747 33.7352 164.747 34.338 165.335 34.9329C165.764 35.3479 166.339 35.5801 166.938 35.5801C167.537 35.5801 168.112 35.3479 168.542 34.9329C169.129 34.3496 169.129 33.7333 169.129 32.4053ZM162.504 29.2944H161.834V35.5162H162.504V29.2944ZM160.002 29.8893V29.2944H155.695V29.8893H157.51V35.5279H158.185V29.8893H160.002ZM153.792 33.5369H151.443L152.618 30.2471L153.792 33.5369ZM155.202 35.524L152.903 29.3022H152.34L150.031 35.524H150.746L151.249 34.1144H153.99L154.493 35.524H155.202ZM148.69 33.7138H148.021C147.853 34.4741 147.298 34.9737 146.513 34.9737C146.313 34.9761 146.114 34.9386 145.928 34.8635C145.742 34.7883 145.573 34.6771 145.431 34.5363C145.039 34.1338 144.99 33.7041 144.99 32.3975C144.99 31.0909 145.033 30.6651 145.431 30.2588C145.573 30.1179 145.742 30.0067 145.928 29.9316C146.114 29.8565 146.313 29.819 146.513 29.8213C147.297 29.8213 147.835 30.319 148.003 31.0812H148.69C148.479 29.9146 147.641 29.2263 146.513 29.2263C146.216 29.223 145.921 29.2785 145.646 29.3897C145.371 29.5009 145.121 29.6655 144.91 29.8738C144.323 30.4571 144.323 31.0715 144.323 32.4014C144.323 33.7313 144.323 34.3341 144.91 34.929C145.121 35.1374 145.371 35.3019 145.646 35.4131C145.921 35.5243 146.216 35.5798 146.513 35.5765C147.633 35.5765 148.487 34.894 148.69 33.7216V33.7138ZM142.259 33.4669V29.2866H141.59V33.4066C141.59 34.3516 140.981 34.9737 140.065 34.9737C139.149 34.9737 138.55 34.3516 138.55 33.4066V29.2866H137.88V33.4591C137.88 34.7015 138.796 35.5687 140.065 35.5687C141.333 35.5687 142.259 34.7015 142.259 33.4591V33.4669ZM135.149 32.3314C135.149 33.0916 135.167 34.0191 134.736 34.4702C134.573 34.6267 134.38 34.748 134.167 34.8263C133.955 34.9046 133.729 34.9383 133.503 34.9251H132.132V29.8816H133.503C133.729 29.8684 133.955 29.9021 134.167 29.9804C134.38 30.0587 134.573 30.18 134.736 30.3365C135.167 30.7818 135.149 31.5692 135.149 32.3314ZM135.819 32.3314C135.819 31.4642 135.854 30.5115 135.202 29.8641C134.99 29.6672 134.74 29.5142 134.468 29.414C134.196 29.3139 133.906 29.2686 133.616 29.2808H131.463V35.5026H133.616C133.906 35.5144 134.196 35.4689 134.468 35.3687C134.74 35.2686 134.99 35.1159 135.202 34.9193C135.854 34.2718 135.819 33.1694 135.819 32.312V32.3314ZM129.407 35.5162V34.9213H126.191V32.6639H128.931V32.0806H126.191V29.8816H129.407V29.2866H125.521V35.5084L129.407 35.5162ZM119.593 31.0268C119.593 31.789 119.072 32.1642 118.342 32.1642H116.682V29.8816H118.356C119.086 29.8816 119.607 30.2704 119.607 31.0268H119.593ZM120.402 35.5162L118.912 32.6892C119.307 32.6269 119.665 32.4222 119.918 32.114C120.171 31.8059 120.301 31.4161 120.282 31.019C120.282 29.9418 119.515 29.2866 118.422 29.2866H116.007V35.5084H116.682V32.7514H118.187L119.619 35.5162H120.402ZM113.195 32.4053C113.195 33.708 113.15 34.128 112.755 34.5304C112.613 34.6722 112.444 34.7846 112.258 34.8614C112.072 34.9381 111.873 34.9776 111.671 34.9776C111.47 34.9776 111.271 34.9381 111.085 34.8614C110.899 34.7846 110.73 34.6722 110.588 34.5304C110.196 34.128 110.147 33.708 110.147 32.4053C110.147 31.1026 110.19 30.6807 110.588 30.2782C110.875 29.9929 111.265 29.8326 111.671 29.8326C112.078 29.8326 112.467 29.9929 112.755 30.2782C113.146 30.6807 113.195 31.1007 113.195 32.4053ZM113.865 32.4053C113.865 31.0832 113.865 30.461 113.278 29.8777C112.848 29.4627 112.273 29.2305 111.674 29.2305C111.075 29.2305 110.5 29.4627 110.071 29.8777C109.484 30.461 109.484 31.0754 109.484 32.4053C109.484 33.7352 109.484 34.338 110.071 34.9329C110.5 35.3479 111.075 35.5801 111.674 35.5801C112.273 35.5801 112.848 35.3479 113.278 34.9329C113.865 34.3496 113.865 33.7333 113.865 32.4053ZM108.015 29.8777V29.2827H104.114V35.5045H104.783V32.7689H107.524V32.1739H104.783V29.8816L108.015 29.8777ZM99.3211 29.2827H98.5987L97.1285 32.275L95.6485 29.2924H94.9261L96.7937 32.9497V35.522H97.4632V32.9439L99.3211 29.2827ZM93.7103 33.7138H93.0408C92.8724 34.4741 92.3184 34.9737 91.5334 34.9737C91.3327 34.9761 91.1335 34.9386 90.9476 34.8635C90.7617 34.7883 90.5928 34.6771 90.4508 34.5363C90.0592 34.1338 90.0103 33.7041 90.0103 32.3975C90.0103 31.0909 90.0533 30.6651 90.4508 30.2588C90.5928 30.1179 90.7617 30.0067 90.9476 29.9316C91.1335 29.8565 91.3327 29.819 91.5334 29.8213C92.3165 29.8213 92.8548 30.319 93.0232 31.0812H93.7103C93.4989 29.9146 92.661 29.2263 91.5334 29.2263C91.2362 29.223 90.9413 29.2785 90.666 29.3897C90.3907 29.5009 90.1405 29.6655 89.93 29.8738C89.3427 30.4571 89.3427 31.0715 89.3427 32.4014C89.3427 33.7313 89.3427 34.3341 89.93 34.929C90.1405 35.1374 90.3907 35.3019 90.666 35.4131C90.9413 35.5243 91.2362 35.5798 91.5334 35.5765C92.6532 35.5765 93.5067 34.894 93.7103 33.7216V33.7138ZM87.1912 35.524V29.3022H86.5217V34.2796L83.1936 29.3022H82.5593V35.524H83.2288V30.5251L86.5569 35.522L87.1912 35.524ZM80.5037 35.524V34.929H77.2793V32.6639H80.0201V32.0806H77.2793V29.8816H80.5037V29.2866H76.6098V35.5084L80.5037 35.524ZM74.3957 33.2472V32.2575H72.1795V32.8408H73.7202V33.3133C73.7493 33.7198 73.6235 34.1223 73.3679 34.441C73.2283 34.6007 73.0574 34.7305 72.8656 34.8224C72.6738 34.9142 72.4652 34.9663 72.2525 34.9754C72.0397 34.9845 71.8274 34.9504 71.6284 34.8753C71.4293 34.8001 71.2478 34.6854 71.095 34.5382C70.7034 34.1357 70.6545 33.7061 70.6545 32.3995C70.6545 31.0929 70.6995 30.6749 71.095 30.2724C71.237 30.1304 71.406 30.018 71.5922 29.9415C71.7784 29.8651 71.9781 29.8262 72.1795 29.8271C72.9626 29.8271 73.5264 30.3074 73.7026 31.0948H74.3722C74.1881 30.0021 73.3776 29.2322 72.1795 29.2322C71.8822 29.228 71.5871 29.2831 71.3117 29.3943C71.0363 29.5055 70.7862 29.6706 70.5762 29.8796C69.9889 30.4629 69.9889 31.0773 69.9889 32.4072C69.9889 33.7372 69.9889 34.3399 70.5762 34.9349C70.7947 35.1463 71.0535 35.3125 71.3373 35.4236C71.6212 35.5347 71.9245 35.5886 72.2295 35.5821C72.5346 35.5756 72.8353 35.5088 73.1141 35.3857C73.3929 35.2625 73.6442 35.0855 73.8534 34.8649C74.2449 34.4527 74.3898 33.9724 74.3898 33.255L74.3957 33.2472ZM67.2285 33.5427H64.8793L66.0539 30.2529L67.2285 33.5427ZM68.6381 35.5298L66.3378 29.308H65.7818L63.4736 35.5298H64.1882L64.6894 34.1202H67.4302L67.9313 35.5298H68.6381Z" fill="black"/>
  <path d="M150.84 22.6838V22.0888H147.633V16.4503H146.964V22.6721L150.84 22.6838ZM143.88 20.6967H141.545L142.72 17.4069L143.88 20.6967ZM145.29 22.6838L142.99 16.462H142.426L140.118 22.6838H140.832L141.333 21.2742H144.074L144.575 22.6838H145.29ZM138.438 22.6838V16.462H137.769V21.4394L134.44 16.462H133.806V22.6838H134.476V17.6927L137.804 22.6896L138.438 22.6838ZM130.985 19.5729C130.985 20.8756 130.942 21.2955 130.545 21.698C130.403 21.8398 130.234 21.9522 130.048 22.029C129.862 22.1057 129.662 22.1452 129.461 22.1452C129.26 22.1452 129.06 22.1057 128.874 22.029C128.688 21.9522 128.519 21.8398 128.377 21.698C127.986 21.2955 127.937 20.8756 127.937 19.5729C127.937 18.2702 127.982 17.8483 128.377 17.4458C128.665 17.1605 129.055 17.0002 129.461 17.0002C129.867 17.0002 130.257 17.1605 130.545 17.4458C130.936 17.8483 130.985 18.2682 130.985 19.5729V19.5729ZM131.655 19.5729C131.655 18.2507 131.655 17.6286 131.067 17.0453C130.638 16.6303 130.063 16.3981 129.464 16.3981C128.865 16.3981 128.29 16.6303 127.861 17.0453C127.273 17.6286 127.273 18.243 127.273 19.5729C127.273 20.9028 127.273 21.5055 127.861 22.1005C128.29 22.5155 128.865 22.7477 129.464 22.7477C130.063 22.7477 130.638 22.5155 131.067 22.1005C131.655 21.5172 131.655 20.9008 131.655 19.5729ZM125.03 16.462H124.36V22.6838H125.03V16.462ZM122.528 17.0569V16.4542H118.221V17.0491H120.036V22.6877H120.705V17.0491L122.528 17.0569ZM116.318 20.7045H113.969L115.143 17.4147L116.318 20.7045ZM117.728 22.6916L115.429 16.4697H114.865L112.557 22.6916H113.27L113.773 21.2819H116.514L117.017 22.6916H117.728ZM110.876 22.6916V16.4697H110.222V21.4472L106.894 16.4697H106.259V22.6916H106.929V17.6927L110.257 22.6896L110.876 22.6916ZM100.696 22.6916V16.4697H100.042V19.2482H97.0581V16.4542H96.3886V22.676H97.0581V19.8315H100.042V22.676L100.696 22.6916ZM94.3173 20.9767C94.3276 20.7447 94.2854 20.5135 94.194 20.2998C94.1025 20.0862 93.964 19.8956 93.7887 19.742C93.5245 19.5145 93.2328 19.3921 92.6435 19.3046L91.9563 19.1996C91.6532 19.1582 91.3656 19.0411 91.1204 18.8593C91.0223 18.7668 90.9462 18.6536 90.8978 18.5281C90.8494 18.4027 90.8298 18.268 90.8404 18.1341C90.8404 17.4419 91.324 16.9792 92.1619 16.9792C92.4293 16.965 92.6968 17.0049 92.9481 17.0965C93.1995 17.1881 93.4296 17.3294 93.6243 17.5119L94.055 17.0841C93.8069 16.85 93.5133 16.6687 93.1921 16.5514C92.871 16.434 92.529 16.3831 92.1873 16.4017C90.9462 16.4017 90.1787 17.1016 90.1787 18.1516C90.1664 18.3689 90.2027 18.5861 90.2849 18.7878C90.3672 18.9896 90.4934 19.1707 90.6545 19.3182C90.9883 19.5783 91.388 19.7418 91.8095 19.7906L92.5397 19.9034C92.9978 19.9734 93.1564 20.0259 93.36 20.2009C93.4629 20.3018 93.5428 20.4234 93.5945 20.5576C93.6461 20.6917 93.6683 20.8353 93.6595 20.9786C93.6595 21.7039 93.0957 22.1335 92.1795 22.1335C91.8615 22.1524 91.5433 22.101 91.2478 21.983C90.9523 21.865 90.6868 21.6833 90.4704 21.4511L90.0123 21.9061C90.5996 22.4894 91.2183 22.7285 92.1658 22.7285C93.4696 22.7285 94.333 22.0538 94.333 20.9611L94.3173 20.9767ZM88.0722 16.4542H87.4027V22.676H88.0722V16.4542ZM84.9262 22.676V16.4542H84.2567V21.4316L80.9286 16.4542H80.2943V22.676H80.9638V17.6927L84.2919 22.6896L84.9262 22.676ZM77.8178 22.676V16.4542H77.1483V21.4316L73.8202 16.4542H73.1859V22.676H73.8554V17.6927L77.1835 22.6896L77.8178 22.676ZM70.7074 16.4542H70.0379V22.676H70.7074V16.4542ZM68.1624 17.0491V16.4542H64.2686V22.676H64.9381V19.9365H67.6789V19.3415H64.9381V17.0491H68.1624Z" fill="black"/>
  <path d="M14.6225 14.3873C18.5751 6.48366 24.5284 -0.4284 20.5778 0.0207374C18.332 0.304798 16.1524 0.971772 14.135 1.99228C15.0458 1.55092 15.9849 1.16966 16.9463 0.850962C16.9463 0.850962 8.74741 4.20103 5.67969 13.7651C6.92189 12.5813 8.28309 11.5271 9.74192 10.6192C16.543 6.34172 9.6225 14.8967 8.10332 25.7169C9.47371 23.967 11.1965 21.2449 13.162 18.2721C13.5223 16.9324 14.0114 15.6302 14.6225 14.3834V14.3873ZM36.071 13.2868C34.4853 12.8357 32.8369 13.7535 31.1768 15.5131C30.5895 16.9324 29.9865 18.5326 29.3581 20.3486C26.7113 27.9801 23.4125 42.125 18.5907 40.3751C18.1703 40.2266 17.7683 40.0309 17.3926 39.7918C16.6702 40.9798 16.0007 41.915 15.3938 42.4886C14.8646 43.0008 14.2499 43.4179 13.5771 43.7213C22.7117 52.6535 39.5479 52.2743 38.5886 41.1742C37.414 27.5815 37.5334 22.1004 37.6392 13.9207C37.1496 13.6393 36.6223 13.4285 36.073 13.2946L36.071 13.2868ZM51.4899 24.7544C51.4742 22.8405 51.251 20.9338 50.8243 19.0673C49.2346 12.1436 43.109 3.98132 39.6654 4.51406C38.9391 4.62683 37.6705 4.86404 35.9458 6.88613C36.5663 7.65219 37.2006 8.49992 37.8408 9.39625C39.1035 -3.09406 46.7836 12.476 48.8157 25.7285C49.1294 25.9926 49.5086 26.1685 49.914 26.2379C51.2569 26.516 51.4801 25.015 51.4977 24.7603" fill="#5FC82B"/>
  <path d="M32.5005 3.51661C20.8443 -3.52765 6.02062 36.0626 4.91256 26.1077C2.04844 6.925 16.9466 0.850952 16.9466 0.850952C7.36556 3.99686 -0.161803 13.6737 0.00264377 24.8458C0.174921 36.0742 6.48264 42.5138 8.75748 43.6299C11.6373 45.0453 14.1529 43.7018 15.3941 42.4905C20.167 37.9816 28.8004 11.2258 36.0713 13.2985C44.2075 15.2428 43.1191 32.275 43.5223 35.5415C44.3054 42.0511 46.1398 41.2733 48.6946 36.4903C50.4076 33.2841 51.5196 29.5899 51.4941 24.7175C51.4941 24.7175 51.3727 26.5412 49.9064 26.236C48.5889 25.9638 48.0955 25.2152 44.7792 20.0647C41.3101 14.6712 35.9969 5.63787 32.5005 3.52245" fill="#0C48D8"/>
</svg>
