<svg viewBox="0 0 79 54" fill="none"
  xmlns="http://www.w3.org/2000/svg">
  <path d="M79 53.4083V49.0296H78.5299V52.5326L76.1934 49.0296H75.7481V53.4083H76.2182V49.8957L78.5547 53.4124L79 53.4083ZM73.7057 51.2189C73.7057 52.1357 73.6755 52.4313 73.3965 52.7145C73.2968 52.8143 73.1782 52.8934 73.0477 52.9475C72.9171 53.0015 72.7771 53.0293 72.6358 53.0293C72.4944 53.0293 72.3544 53.0015 72.2239 52.9475C72.0933 52.8934 71.9748 52.8143 71.875 52.7145C71.6001 52.4313 71.5658 52.1357 71.5658 51.2189C71.5658 50.3021 71.5974 50.0052 71.875 49.7219C72.0768 49.5212 72.3505 49.4084 72.6358 49.4084C72.9211 49.4084 73.1947 49.5212 73.3965 49.7219C73.6714 50.0052 73.7057 50.3008 73.7057 51.2189ZM74.1758 51.2189C74.1758 50.2884 74.1758 49.8506 73.7635 49.4401C73.4622 49.148 73.0583 48.9846 72.6378 48.9846C72.2173 48.9846 71.8135 49.148 71.5122 49.4401C71.0999 49.8506 71.0999 50.283 71.0999 51.2189C71.0999 52.1549 71.0999 52.5791 71.5122 52.9978C71.8135 53.2898 72.2173 53.4533 72.6378 53.4533C73.0583 53.4533 73.4622 53.2898 73.7635 52.9978C74.1758 52.5873 74.1758 52.1535 74.1758 51.2189ZM69.5248 49.0296H69.0547V53.4083H69.5248V49.0296ZM67.7683 49.4483V49.0296H64.7446V49.4483H66.0186V53.4165H66.4928V49.4483H67.7683ZM63.4086 52.0153H61.7593L62.584 49.7001L63.4086 52.0153ZM64.3982 53.4138L62.7846 49.035H62.3888L60.7684 53.4138H61.27L61.6233 52.4217H63.5474L63.9007 53.4138H64.3982ZM59.8269 52.1398H59.3569C59.2387 52.6749 58.8497 53.0265 58.2986 53.0265C58.1577 53.0282 58.0179 53.0018 57.8873 52.9489C57.7568 52.896 57.6382 52.8178 57.5385 52.7186C57.2636 52.4354 57.2293 52.133 57.2293 51.2135C57.2293 50.2939 57.2595 49.9943 57.5385 49.7083C57.6382 49.6092 57.7568 49.5309 57.8873 49.478C58.0179 49.4251 58.1577 49.3987 58.2986 49.4004C58.8483 49.4004 59.2263 49.7507 59.3445 50.2871H59.8269C59.6785 49.4661 59.0902 48.9817 58.2986 48.9817C58.0899 48.9793 57.8829 49.0184 57.6897 49.0966C57.4964 49.1749 57.3207 49.2907 57.1729 49.4373C56.7606 49.8478 56.7606 50.2802 56.7606 51.2162C56.7606 52.1521 56.7606 52.5763 57.1729 52.9951C57.3207 53.1417 57.4964 53.2575 57.6897 53.3357C57.8829 53.414 58.0899 53.4531 58.2986 53.4507C59.0847 53.4507 59.684 52.9704 59.8269 52.1453V52.1398ZM55.312 51.9661V49.0241H54.8419V51.9236C54.8419 52.5887 54.4145 53.0265 53.7712 53.0265C53.128 53.0265 52.7074 52.5887 52.7074 51.9236V49.0241H52.2374V51.9606C52.2374 52.835 52.8806 53.4452 53.7712 53.4452C54.6619 53.4452 55.312 52.835 55.312 51.9606V51.9661ZM50.3201 51.1669C50.3201 51.702 50.3324 52.3547 50.0301 52.6721C49.9159 52.7823 49.78 52.8677 49.6309 52.9228C49.4819 52.9779 49.3229 53.0016 49.1642 52.9923H48.2021V49.4428H49.1642C49.3229 49.4335 49.4819 49.4572 49.6309 49.5123C49.78 49.5675 49.9159 49.6528 50.0301 49.763C50.3324 50.0764 50.3201 50.6305 50.3201 51.1669ZM50.7901 51.1669C50.7901 50.5566 50.8149 49.8862 50.3572 49.4305C50.2083 49.2919 50.0332 49.1842 49.842 49.1138C49.6509 49.0433 49.4476 49.0114 49.2439 49.02H47.7321V53.3987H49.2439C49.4475 53.407 49.6508 53.375 49.8419 53.3045C50.0329 53.234 50.2081 53.1265 50.3572 52.9882C50.8149 52.5326 50.7901 51.7567 50.7901 51.1532V51.1669ZM46.2889 53.4083V52.9896H44.0308V51.4009H45.9549V50.9904H44.0308V49.4428H46.2889V49.0241H43.5607V53.4028L46.2889 53.4083ZM39.399 50.2488C39.399 50.7852 39.0334 51.0493 38.5207 51.0493H37.3552V49.4428H38.5303C39.043 49.4428 39.4086 49.7165 39.4086 50.2488H39.399ZM39.9666 53.4083L38.9207 51.4187C39.1982 51.3749 39.4497 51.2308 39.6272 51.014C39.8047 50.7971 39.8957 50.5227 39.8828 50.2433C39.8828 49.4852 39.344 49.0241 38.5771 49.0241H36.881V53.4028H37.3552V51.4625H38.4121L39.4168 53.4083H39.9666ZM34.9074 51.2189C34.9074 52.1357 34.8758 52.4313 34.5981 52.7145C34.4984 52.8143 34.3799 52.8934 34.2493 52.9475C34.1188 53.0015 33.9788 53.0293 33.8374 53.0293C33.696 53.0293 33.5561 53.0015 33.4255 52.9475C33.295 52.8934 33.1764 52.8143 33.0767 52.7145C32.8018 52.4313 32.7674 52.1357 32.7674 51.2189C32.7674 50.3021 32.7977 50.0052 33.0767 49.7219C33.2785 49.5212 33.5521 49.4084 33.8374 49.4084C34.1227 49.4084 34.3963 49.5212 34.5981 49.7219C34.873 50.0052 34.9074 50.3008 34.9074 51.2189ZM35.3774 51.2189C35.3774 50.2884 35.3774 49.8506 34.9651 49.4401C34.6638 49.148 34.26 48.9846 33.8395 48.9846C33.419 48.9846 33.0151 49.148 32.7138 49.4401C32.3015 49.8506 32.3015 50.283 32.3015 51.2189C32.3015 52.1549 32.3015 52.5791 32.7138 52.9978C33.0151 53.2898 33.419 53.4533 33.8395 53.4533C34.26 53.4533 34.6638 53.2898 34.9651 52.9978C35.3774 52.5873 35.3774 52.1535 35.3774 51.2189ZM31.2707 49.4401V49.0213H28.5315V53.4001H29.0015V51.4748H30.9257V51.0561H29.0015V49.4428L31.2707 49.4401ZM25.1669 49.0213H24.6598L23.6276 51.1272L22.5885 49.0282H22.0813L23.3925 51.6021V53.4124H23.8626V51.598L25.1669 49.0213ZM21.2278 52.1398H20.7578C20.6396 52.6749 20.2506 53.0265 19.6995 53.0265C19.5586 53.0282 19.4188 53.0018 19.2883 52.9489C19.1578 52.896 19.0392 52.8178 18.9394 52.7186C18.6646 52.4354 18.6302 52.133 18.6302 51.2135C18.6302 50.2939 18.6604 49.9943 18.9394 49.7083C19.0392 49.6092 19.1578 49.5309 19.2883 49.478C19.4188 49.4251 19.5586 49.3987 19.6995 49.4004C20.2493 49.4004 20.6272 49.7507 20.7454 50.2871H21.2278C21.0794 49.4661 20.4912 48.9817 19.6995 48.9817C19.4909 48.9793 19.2839 49.0184 19.0906 49.0966C18.8973 49.1749 18.7216 49.2907 18.5738 49.4373C18.1615 49.8478 18.1615 50.2802 18.1615 51.2162C18.1615 52.1521 18.1615 52.5763 18.5738 52.9951C18.7216 53.1417 18.8973 53.2575 19.0906 53.3357C19.2839 53.414 19.4909 53.4531 19.6995 53.4507C20.4857 53.4507 21.0849 52.9704 21.2278 52.1453V52.1398ZM16.651 53.4138V49.035H16.181V52.538L13.8445 49.035H13.3992V53.4138H13.8692V49.8957L16.2057 53.4124L16.651 53.4138ZM11.956 53.4138V52.9951H9.69238V51.4009H11.6166V50.9904H9.69238V49.4428H11.956V49.0241H9.22232V53.4028L11.956 53.4138ZM7.66786 51.8114V51.1149H6.11202V51.5254H7.19369V51.858C7.21406 52.144 7.12577 52.4273 6.94629 52.6516C6.84831 52.764 6.72833 52.8553 6.59369 52.92C6.45905 52.9847 6.31258 53.0213 6.16324 53.0277C6.01389 53.0341 5.8648 53.0101 5.72507 52.9572C5.58535 52.9043 5.45793 52.8236 5.3506 52.72C5.07572 52.4368 5.04136 52.1344 5.04136 51.2148C5.04136 50.2953 5.07297 50.0011 5.3506 49.7178C5.45031 49.618 5.56897 49.5388 5.69969 49.485C5.83041 49.4312 5.97058 49.4038 6.11202 49.4045C6.66179 49.4045 7.05762 49.7425 7.18132 50.2967H7.65137C7.52217 49.5276 6.95316 48.9858 6.11202 48.9858C5.90331 48.9828 5.69612 49.0216 5.50276 49.0999C5.3094 49.1782 5.1338 49.2943 4.98638 49.4414C4.57405 49.8519 4.57405 50.2843 4.57405 51.2203C4.57405 52.1563 4.57405 52.5804 4.98638 52.9992C5.1398 53.148 5.32146 53.2649 5.52075 53.3431C5.72004 53.4213 5.93297 53.4593 6.14713 53.4547C6.3613 53.4501 6.5724 53.4031 6.76813 53.3164C6.96386 53.2298 7.1403 53.1052 7.28715 52.9499C7.56203 52.6598 7.66374 52.3218 7.66374 51.8169L7.66786 51.8114ZM2.63613 52.0194H0.986833L1.81148 49.7042L2.63613 52.0194ZM3.62571 53.4179L2.01077 49.0391H1.62044L0 53.4179H0.501661L0.853515 52.4258H2.7777L3.12955 53.4179H3.62571Z" fill="black"/>
  <path d="M70.2975 44.3772V43.9584H68.0462V39.9902H67.5762V44.369L70.2975 44.3772ZM65.4115 42.9787H63.7718L64.5965 40.6634L65.4115 42.9787ZM66.4011 44.3772L64.7861 39.9984H64.3903L62.7699 44.3772H63.2715L63.6234 43.3851H65.5475L65.8994 44.3772H66.4011ZM61.5906 44.3772V39.9984H61.1206V43.5014L58.7841 39.9984H58.3387V44.3772H58.8088V40.8646L61.1453 44.3813L61.5906 44.3772ZM56.3582 42.1878C56.3582 43.1046 56.328 43.4002 56.049 43.6834C55.9492 43.7832 55.8307 43.8623 55.7001 43.9163C55.5696 43.9703 55.4296 43.9981 55.2882 43.9981C55.1469 43.9981 55.0069 43.9703 54.8763 43.9163C54.7458 43.8623 54.6272 43.7832 54.5275 43.6834C54.2526 43.4002 54.2182 43.1046 54.2182 42.1878C54.2182 41.271 54.2499 40.9741 54.5275 40.6908C54.7293 40.49 55.0029 40.3772 55.2882 40.3772C55.5735 40.3772 55.8472 40.49 56.049 40.6908C56.3239 40.9741 56.3582 41.2696 56.3582 42.1878V42.1878ZM56.8283 42.1878C56.8283 41.2573 56.8283 40.8194 56.4159 40.4089C56.1147 40.1169 55.7108 39.9535 55.2903 39.9535C54.8698 39.9535 54.4659 40.1169 54.1646 40.4089C53.7523 40.8194 53.7523 41.2518 53.7523 42.1878C53.7523 43.1237 53.7523 43.5479 54.1646 43.9667C54.4659 44.2587 54.8698 44.4221 55.2903 44.4221C55.7108 44.4221 56.1147 44.2587 56.4159 43.9667C56.8283 43.5561 56.8283 43.1224 56.8283 42.1878ZM52.1772 39.9984H51.7072V44.3772H52.1772V39.9984ZM50.4207 40.4171V39.9929H47.397V40.4117H48.6711V44.3799H49.1412V40.4117L50.4207 40.4171ZM46.0611 42.9842H44.4118L45.2364 40.6689L46.0611 42.9842ZM47.0507 44.3826L45.4371 40.0039H45.0413L43.4208 44.3826H43.9211L44.2744 43.3906H46.1985L46.5518 44.3826H47.0507ZM42.2402 44.3826V40.0039H41.7812V43.5069L39.4447 40.0039H38.9994V44.3826H39.4694V40.8646L41.8059 44.3813L42.2402 44.3826ZM35.0933 44.3826V40.0039H34.6342V41.9593H32.5396V39.9929H32.0696V44.3717H32.5396V42.3698H34.6342V44.3717L35.0933 44.3826ZM30.6154 43.1757C30.6226 43.0125 30.593 42.8498 30.5288 42.6994C30.4646 42.5491 30.3674 42.4149 30.2443 42.3068C30.0588 42.1467 29.854 42.0605 29.4403 41.999L28.9579 41.9251C28.7451 41.8959 28.5431 41.8136 28.371 41.6856C28.3021 41.6205 28.2487 41.5408 28.2147 41.4525C28.1807 41.3642 28.167 41.2695 28.1745 41.1752C28.1745 40.6881 28.5139 40.3624 29.1022 40.3624C29.2899 40.3524 29.4777 40.3805 29.6542 40.445C29.8307 40.5094 29.9922 40.6089 30.1289 40.7373L30.4313 40.4363C30.2571 40.2715 30.0509 40.1439 29.8255 40.0613C29.6 39.9788 29.36 39.9429 29.1201 39.956C28.2487 39.956 27.7099 40.4486 27.7099 41.1875C27.7012 41.3404 27.7267 41.4934 27.7844 41.6353C27.8422 41.7773 27.9308 41.9047 28.0439 42.0085C28.2783 42.1916 28.5589 42.3067 28.8548 42.341L29.3675 42.4204C29.6891 42.4697 29.8004 42.5066 29.9433 42.6298C30.0156 42.7008 30.0717 42.7864 30.108 42.8808C30.1442 42.9752 30.1598 43.0762 30.1536 43.1771C30.1536 43.6875 29.7578 43.9899 29.1146 43.9899C28.8913 44.0032 28.6679 43.967 28.4604 43.8839C28.253 43.8009 28.0666 43.673 27.9147 43.5096L27.5931 43.8298C28.0054 44.2403 28.4397 44.4086 29.1049 44.4086C30.0203 44.4086 30.6264 43.9338 30.6264 43.1648L30.6154 43.1757ZM26.231 39.9929H25.761V44.3717H26.231V39.9929ZM24.0224 44.3717V39.9929H23.5523V43.4959L21.2158 39.9929H20.7705V44.3717H21.2405V40.8646L23.577 44.3813L24.0224 44.3717ZM19.0319 44.3717V39.9929H18.5618V43.4959L16.2253 39.9929H15.78V44.3717H16.25V40.8646L18.5865 44.3813L19.0319 44.3717ZM14.04 39.9929H13.5699V44.3717H14.04V39.9929ZM12.2532 40.4117V39.9929H9.51953V44.3717H9.98958V42.4437H11.9138V42.025H9.98958V40.4117H12.2532Z" fill="black"/>
  <path d="M31.6943 10.1254C34.4693 4.56301 38.6489 -0.301496 35.8753 0.0145944C34.2986 0.214508 32.7684 0.683905 31.3521 1.40211C31.9916 1.0915 32.6509 0.823173 33.3258 0.598883C33.3258 0.598883 27.5697 2.95656 25.416 9.68751C26.2881 8.85436 27.2438 8.11248 28.2679 7.47351C33.0426 4.46312 28.1841 10.4839 27.1175 18.0988C28.0796 16.8673 29.2891 14.9516 30.669 12.8594C30.922 11.9165 31.2653 11.0001 31.6943 10.1226V10.1254ZM46.7524 9.35089C45.6392 9.03343 44.4819 9.6793 43.3164 10.9177C42.9041 11.9166 42.4808 13.0427 42.0396 14.3208C40.1814 19.6916 37.8655 29.6464 34.4803 28.4148C34.1851 28.3103 33.9029 28.1726 33.6391 28.0043C33.132 28.8404 32.6619 29.4986 32.2359 29.9022C31.8643 30.2627 31.4328 30.5563 30.9604 30.7698C37.3734 37.056 49.1934 36.7892 48.5199 28.9772C47.6953 19.411 47.7791 15.5537 47.8533 9.79698C47.5096 9.59898 47.1394 9.45063 46.7538 9.35636L46.7524 9.35089ZM57.5773 17.4215C57.5663 16.0745 57.4096 14.7326 57.11 13.419C55.994 8.5463 51.6935 2.80194 49.2759 3.17687C48.766 3.25623 47.8753 3.42317 46.6645 4.84626C47.1002 5.38539 47.5455 5.982 47.9949 6.61281C48.8814 -2.17751 54.2732 8.78029 55.6999 18.107C55.9201 18.2929 56.1864 18.4167 56.4709 18.4655C57.4138 18.6612 57.5705 17.6048 57.5828 17.4256" fill="#5FC82B"/>
  <path d="M44.2458 2.47489C36.0626 -2.48266 25.6555 25.3798 24.8776 18.3738C22.8668 4.87362 33.3261 0.598877 33.3261 0.598877C26.5997 2.81288 21.3151 9.62319 21.4306 17.4858C21.5515 25.388 25.9799 29.92 27.5769 30.7055C29.5987 31.7016 31.3648 30.7561 32.2362 29.9036C35.587 26.7304 41.6482 7.90043 46.7528 9.3591C52.4648 10.7275 51.7007 22.7143 51.9838 25.0131C52.5336 29.5944 53.8214 29.047 55.615 25.6808C56.8176 23.4244 57.5983 20.8246 57.5804 17.3955C57.5804 17.3955 57.4952 18.679 56.4658 18.4641C55.5408 18.2726 55.1944 17.7458 52.8662 14.121C50.4307 10.3252 46.7006 3.96777 44.2458 2.479" fill="#0C48D8"/>
</svg>
