<svg viewBox="0 0 79 54" fill="none"
  xmlns="http://www.w3.org/2000/svg">
  <path fill-rule="evenodd" clip-rule="evenodd" d="M42.5939 51.7738C42.6082 51.4477 42.4742 51.1326 42.2294 50.9166C42.0471 50.7586 41.846 50.6736 41.4396 50.6128L40.9658 50.5399C40.7544 50.5123 40.5536 50.431 40.3826 50.3037C40.2466 50.175 40.1753 49.9923 40.1882 49.8055C40.1882 49.3249 40.5216 49.0036 41.0994 49.0036C41.472 48.9838 41.8365 49.1175 42.1079 49.3735L42.4049 49.0765C42.0591 48.748 41.5932 48.5766 41.117 48.6027C40.2611 48.6027 39.7318 49.0887 39.7318 49.8177C39.7146 50.1232 39.835 50.4203 40.0599 50.6277C40.2901 50.8083 40.5658 50.9218 40.8564 50.9557L41.36 51.034C41.6758 51.0826 41.7852 51.1191 41.9256 51.2406C42.0691 51.3824 42.1444 51.5792 42.1322 51.7806C42.1322 52.2841 41.7434 52.5825 41.1116 52.5825C40.6676 52.609 40.2351 52.4351 39.933 52.1086L39.6225 52.4353C40.0275 52.8403 40.4541 53.0064 41.1075 53.0064C42.0066 53.0064 42.602 52.5379 42.602 51.7792L42.5939 51.7738ZM46.1565 50.922C46.4013 51.138 46.5353 51.4531 46.521 51.7792L46.5237 51.7738C46.5237 52.5325 45.9284 53.001 45.0293 53.001C44.3759 53.001 43.9492 52.8349 43.5443 52.4299L43.8601 52.114C44.1622 52.4405 44.5947 52.6144 45.0387 52.5879C45.6705 52.5879 46.0593 52.2895 46.0593 51.786C46.0716 51.5846 45.9963 51.3878 45.8528 51.246C45.7123 51.1245 45.603 51.088 45.2871 51.0394L44.7836 50.9611C44.4929 50.9272 44.2173 50.8137 43.987 50.6331C43.7621 50.4257 43.6418 50.1286 43.659 49.8231C43.659 49.0941 44.1882 48.6081 45.0441 48.6081C45.5203 48.582 45.9863 48.7534 46.332 49.0819L46.035 49.3789C45.7636 49.1229 45.3992 48.9892 45.0266 49.009C44.4487 49.009 44.1153 49.3303 44.1153 49.8109C44.1024 49.9977 44.1737 50.1804 44.3097 50.3091C44.4807 50.4364 44.6815 50.5177 44.8929 50.5453L45.3667 50.6182C45.7731 50.679 45.9743 50.764 46.1565 50.922ZM69.9394 51.7792C69.9538 51.4531 69.8198 51.138 69.5749 50.922C69.3927 50.764 69.1929 50.679 68.7852 50.6182L68.3113 50.5453C68.1 50.5174 67.8993 50.4361 67.7281 50.3091C67.5922 50.1804 67.5209 49.9977 67.5338 49.8109C67.5338 49.3303 67.8685 49.009 68.445 49.009C68.8176 48.9888 69.1822 49.1226 69.4534 49.3789L69.7518 49.0819C69.4058 48.7538 68.9401 48.5825 68.4639 48.6081C67.6067 48.6081 67.0788 49.0941 67.0788 49.8231C67.0616 50.1286 67.1819 50.4257 67.4069 50.6331C67.6364 50.8139 67.9117 50.9275 68.202 50.9611L68.7069 51.0394C69.0228 51.088 69.1321 51.1245 69.2712 51.246C69.4153 51.3874 69.4907 51.5845 69.4777 51.786C69.4777 52.2895 69.089 52.5879 68.4571 52.5879C68.0132 52.6144 67.5807 52.4405 67.2786 52.114L66.9627 52.4299C67.3677 52.8349 67.7956 53.001 68.4477 53.001C69.3468 53.001 69.9421 52.5325 69.9421 51.7738L69.9394 51.7792ZM74.0462 52.5568V52.9699L71.361 52.9645V48.6446H74.0475V49.0577H71.8227V50.5831H73.7127V50.9949H71.8227V52.5568H74.0462ZM78.6578 48.6499V52.97L78.2204 52.9727L75.9254 49.5031V52.97H75.4637V48.6499H75.9011L78.1961 52.106V48.6499H78.6578ZM66.316 52.5514V52.9646L63.6404 52.9565V48.6364H64.1021V52.5514H66.316ZM62.2269 52.9645V52.5514H60.0075V50.9949H61.8975V50.5832H60.0075V49.0577H62.2309V48.6446H59.5391V52.9645H62.2269ZM56.7149 50.6425C57.2184 50.6425 57.5775 50.382 57.5775 49.8528C57.5775 49.3277 57.2184 49.0577 56.7149 49.0577H55.5606V50.6425H56.7149ZM58.1175 52.9699L57.0901 51.007C57.6545 50.9176 58.0614 50.4182 58.0351 49.8474C58.0351 49.0995 57.5059 48.6446 56.7526 48.6446H55.0989V52.9645H55.5606V51.0502H56.5987L57.5775 52.9699H58.1175ZM53.4641 48.6499H53.9622L52.6932 51.1839V52.9727H52.2315V51.1866L50.9436 48.6472H51.4417L52.4623 50.7181L53.4641 48.6499ZM50.166 49.0577V48.6446H47.196V49.0577H48.4474V52.9727H48.9091V49.0577H50.166ZM38.4602 50.706V51.3932L38.4642 51.3986C38.4642 51.8967 38.3643 52.2302 38.0943 52.5164C37.8029 52.8258 37.3995 53.0052 36.9745 53.0143C36.5496 53.0235 36.1388 52.8616 35.8344 52.565C35.4294 52.1519 35.4294 51.7334 35.4294 50.81C35.4294 49.8865 35.4294 49.4599 35.8344 49.0549C36.127 48.7617 36.5259 48.5995 36.9401 48.6054C37.7663 48.6054 38.3252 49.14 38.4521 49.8987H37.9904C37.8689 49.3519 37.4801 49.0185 36.9401 49.0185C36.6594 49.0172 36.39 49.1286 36.1922 49.3276C35.9195 49.6071 35.8884 49.8973 35.8884 50.8046C35.8884 51.7118 35.9222 52.0101 36.1922 52.2896C36.4052 52.4961 36.6939 52.6059 36.9904 52.5931C37.2868 52.5803 37.565 52.4462 37.7595 52.2221C37.9358 52.0007 38.0225 51.7213 38.0025 51.4391V51.111H36.936V50.706H38.4602ZM33.8836 52.9781V48.6581H33.4125V52.1141L31.1175 48.6581H30.6801V52.9781H31.1418V49.5032L33.4368 52.9726L33.8836 52.9781ZM28.5201 48.6581H28.9818V52.9781H28.5201V48.6581ZM26.8123 52.9781V48.6581H26.3506V52.1141L24.0557 48.6581H23.6182V52.9781H24.08V49.5032L26.3749 52.9726L26.8123 52.9781ZM21.6081 50.8186L21.6081 50.7586L21.6081 50.6986C21.6086 50.1885 21.609 49.671 21.3232 49.3735C21.0965 49.1538 20.788 49.0392 20.4727 49.0577H19.5277V52.5595H20.4727C20.788 52.578 21.0965 52.4634 21.3232 52.2436C21.6091 51.9422 21.6086 51.3344 21.6081 50.8186ZM22.0698 50.7518L22.0699 50.6705C22.071 50.0928 22.0723 49.4732 21.6445 49.0455C21.3491 48.7693 20.9551 48.6234 20.5511 48.6405H19.066V52.9605H20.5511C20.955 52.977 21.3488 52.8311 21.6445 52.5555C22.0724 52.1276 22.071 51.4136 22.0699 50.8324L22.0698 50.7518ZM17.8052 52.5433V52.9564L15.1308 52.9483V48.6283H15.5925V52.5433H17.8052ZM13.4258 48.6364H12.9641V52.9564H13.4325L13.4258 48.6364ZM10.9593 51.7563L10.9593 51.7523V51.7604L10.9593 51.7563ZM10.0899 50.9706C10.6284 50.9706 10.9575 51.2727 10.9593 51.7563C10.9574 52.24 10.623 52.5487 10.0899 52.5487H8.91135V50.9706H10.0899ZM10.8918 49.8042C10.8918 50.3212 10.5219 50.5575 10.0413 50.5575H8.91135V49.0577H10.0413C10.5219 49.0577 10.8918 49.2885 10.8918 49.8042ZM10.7163 50.7465C11.1512 50.8964 11.4372 51.3128 11.421 51.7725V51.7698C11.421 52.5542 10.8986 52.9673 10.1331 52.9673H8.44965V48.6472H10.0778C10.831 48.6472 11.3535 49.0779 11.3535 49.8015C11.3616 50.2194 11.1067 50.5974 10.7163 50.7465ZM7.18605 49.0577V48.6446H4.21605V49.0577H5.4675V52.9727H5.9292V49.0577H7.18605ZM3.0186 48.6446V51.5416C3.0186 52.4043 2.3814 53.0064 1.5066 53.0064C0.6318 53.0064 0 52.4043 0 51.5416V48.6446H0.4617V51.5052C0.4617 52.1613 0.8748 52.5933 1.5066 52.5933C2.1384 52.5933 2.5569 52.1613 2.5569 51.5052V48.6446H3.0186Z" fill="black"/>
  <path fill-rule="evenodd" clip-rule="evenodd" d="M36.094 42.3237C36.1083 41.9975 35.9743 41.6824 35.7295 41.4664C35.5472 41.3085 35.3474 41.2234 34.9397 41.1627L34.4659 41.0898C34.2546 41.0619 34.0539 40.9806 33.8827 40.8535C33.7467 40.7249 33.6754 40.5421 33.6883 40.3554C33.6883 39.8748 34.0231 39.5535 34.5995 39.5535C34.9722 39.5333 35.3368 39.667 35.608 39.9234L35.9063 39.6264C35.5603 39.2983 35.0946 39.1269 34.6184 39.1525C33.7612 39.1525 33.2333 39.6385 33.2333 40.3675C33.2161 40.673 33.3365 40.9702 33.5614 41.1775C33.791 41.3583 34.0662 41.4719 34.3565 41.5056L34.8614 41.5839C35.1773 41.6325 35.2867 41.6689 35.4257 41.7904C35.5699 41.9318 35.6453 42.129 35.6323 42.3304C35.6323 42.834 35.2435 43.1323 34.6117 43.1323C34.1677 43.1589 33.7352 42.985 33.4331 42.6585L33.1172 42.9744C33.5222 43.3794 33.9502 43.5454 34.6022 43.5454C35.5013 43.5454 36.0967 43.077 36.0967 42.3183L36.094 42.3237ZM67.4032 42.3291C67.4175 42.0029 67.2835 41.6878 67.0387 41.4718C66.8564 41.3139 66.6553 41.2288 66.2489 41.1681L65.7751 41.0952C65.5637 41.0676 65.3629 40.9862 65.1919 40.8589C65.0559 40.7303 64.9846 40.5475 64.9975 40.3608C64.9975 39.8802 65.3309 39.5589 65.9087 39.5589C66.2813 39.539 66.6458 39.6727 66.9172 39.9288L67.2142 39.6318C66.8684 39.3033 66.4025 39.1318 65.9263 39.1579C65.0704 39.1579 64.5412 39.6439 64.5412 40.3729C64.5239 40.6784 64.6443 40.9756 64.8692 41.1829C65.0995 41.3635 65.3751 41.4771 65.6657 41.511L66.1693 41.5893C66.4852 41.6379 66.5945 41.6743 66.7349 41.7958C66.8785 41.9376 66.9538 42.1345 66.9415 42.3358C66.9415 42.8394 66.5527 43.1377 65.9209 43.1377C65.4769 43.1643 65.0444 42.9904 64.7423 42.6639L64.4264 42.9852C64.8314 43.3902 65.258 43.5562 65.9114 43.5562C66.8105 43.5562 67.4059 43.0878 67.4059 42.3291H67.4032ZM63.1534 42.0915V39.1944H62.6917V42.055C62.6917 42.7111 62.2718 43.1431 61.64 43.1431C61.0082 43.1431 60.5951 42.7111 60.5951 42.055V39.1944H60.1334V42.0915C60.1334 42.9541 60.7652 43.5562 61.64 43.5562C62.5148 43.5562 63.1534 42.9541 63.1534 42.0915ZM58.9319 39.1944V39.6075H57.6764V43.5225H57.2134V39.6075H55.9619V39.1944H58.9319ZM54.7064 39.1944H54.2447V43.5144H54.7064V39.1944ZM52.9811 43.1013V43.5144L50.3027 43.5063V39.1863H50.7644V43.1013H52.9811ZM49.0445 43.5144V43.1013H46.8278V39.1863H46.3661V43.5063L49.0445 43.5144ZM42.6253 42.1347H44.2453L43.4353 39.8505L42.6253 42.1347ZM45.2173 43.5144L43.631 39.1944H43.2314L41.6398 43.5144H42.1325L42.4781 42.5356H44.3681L44.7137 43.5144H45.2173ZM40.4923 39.1944V43.5144L40.0292 43.5198V41.5447H37.9759V43.5144H37.5142V39.1944H37.9759V41.133H40.0306V39.1944H40.4923ZM31.8442 39.1944V42.0807L31.8401 42.0915C31.8401 42.9541 31.2029 43.5562 30.3281 43.5562C29.4533 43.5562 28.8215 42.9541 28.8215 42.0915V39.1944H29.2832V42.055C29.2832 42.7111 29.6963 43.1431 30.3281 43.1431C30.9599 43.1431 31.3784 42.7111 31.3784 42.055V39.1944H31.8442ZM27.6187 39.6075V39.1944H24.6487V39.6075H25.9001V43.5225H26.3618V39.6075H27.6187ZM23.6821 43.1094V43.5225L20.9969 43.5144V39.1944H23.6821V39.6075H21.4586V41.133H23.3486V41.5447H21.4586V43.1094H23.6821ZM19.2014 40.458C19.2014 41.029 18.8248 41.3206 18.2834 41.3206H17.1764V39.6075H18.2821C18.8221 39.6075 19.2001 39.8923 19.2001 40.4634L19.2014 40.458ZM18.3253 39.1944C19.1218 39.1944 19.6618 39.6858 19.6618 40.4634C19.6618 41.241 19.115 41.7391 18.3253 41.7391H17.1764V43.5144H16.7134V39.1944H18.3253ZM14.71 41.3571C14.71 42.2616 14.6803 42.5532 14.4062 42.8326C14.2084 43.0314 13.9395 43.1431 13.659 43.1431C13.3786 43.1431 13.1097 43.0314 12.9118 42.8326C12.6418 42.5532 12.608 42.2616 12.608 41.3571C12.608 40.4526 12.6391 40.1596 12.9118 39.8802C13.3245 39.4677 13.9935 39.4677 14.4062 39.8802C14.6762 40.1596 14.71 40.4512 14.71 41.3571ZM14.7667 39.6022C15.1717 40.0139 15.1717 40.4392 15.1717 41.3572C15.1717 42.2792 15.1717 42.7072 14.7667 43.1122C14.1513 43.7113 13.1707 43.7113 12.5554 43.1122C12.1504 42.6991 12.1504 42.2806 12.1504 41.3572C12.1504 40.4338 12.1504 40.0072 12.5554 39.6022C13.1707 39.003 14.1513 39.003 14.7667 39.6022Z" fill="black"/>
  <path fill-rule="evenodd" clip-rule="evenodd" d="M31.8151 9.99139C32.6974 8.21447 33.7244 6.50984 34.6174 5.02748C36.483 1.93069 37.7642 -0.196012 35.9218 0.0148868C34.373 0.211614 32.8699 0.67474 31.4789 1.38379C32.107 1.07723 32.7546 0.812508 33.4175 0.591337C33.4175 0.591337 27.7637 2.91739 25.6523 9.55804C26.5073 8.73586 27.4446 8.0039 28.4495 7.37374C31.1945 5.63545 30.6981 6.94933 29.6042 9.84461C28.8291 11.8961 27.7541 14.7416 27.3196 17.8578C28.063 16.902 28.9569 15.5283 29.9643 13.9801L29.9643 13.9801L29.9645 13.9798C30.2376 13.5602 30.519 13.1278 30.808 12.6873C31.056 11.757 31.3933 10.8528 31.8151 9.98734V9.99139ZM46.6057 9.22594C45.5122 8.91274 44.3755 9.54994 43.2307 10.7717C42.8257 11.7572 42.4099 12.8682 41.9765 14.1291C41.6548 15.0633 41.3192 16.1379 40.9662 17.2678C39.3168 22.5481 37.2905 29.035 34.5515 28.0341C34.2617 27.9308 33.9845 27.7949 33.7253 27.6291C33.2272 28.454 32.7655 29.1033 32.347 29.5016C31.9817 29.8567 31.5579 30.1463 31.0942 30.3575C37.396 36.5607 49.0019 36.2975 48.3418 28.5903C47.5592 19.4722 47.6096 15.6099 47.6796 10.237L47.687 9.66604C47.3494 9.47078 46.9858 9.32442 46.607 9.23134L46.6057 9.22594ZM56.7806 13.2395C57.0754 14.5359 57.2297 15.8602 57.241 17.1896L57.2464 17.1923C57.2329 17.3691 57.0803 18.4113 56.1529 18.2183C55.8737 18.169 55.6125 18.047 55.3955 17.8646C53.9942 8.66299 48.6982 -2.14781 47.8274 6.52459C47.386 5.90224 46.9486 5.31364 46.5206 4.78174C47.71 3.37774 48.5848 3.21304 49.0856 3.13474C51.4603 2.76484 55.6844 8.43214 56.7806 13.2395Z" fill="#5FC82B"/>
  <path d="M44.1382 2.44216C36.1057 -2.44889 25.8835 25.0412 25.1181 18.1292C23.143 4.80871 33.4179 0.591309 33.4179 0.591309C26.811 2.77561 21.6189 9.49456 21.7363 17.253C21.8551 25.0493 26.2062 29.5205 27.7749 30.2954C29.7607 31.2782 31.4955 30.3453 32.3514 29.5043C35.644 26.3736 41.5921 7.79491 46.606 9.23401C52.2166 10.584 51.4728 22.4114 51.7441 24.6794C52.2841 29.1992 53.5491 28.6592 55.3108 25.3382C56.4921 23.112 57.2602 20.547 57.2427 17.1639C57.2427 17.1639 57.159 18.4302 56.1465 18.2183C55.2379 18.0293 54.8977 17.5095 52.6108 13.932C50.2159 10.1871 46.5547 3.91771 44.1382 2.44621" fill="#0C48D8"/>
</svg>
