<svg viewBox="0 0 176 50" fill="none"
  xmlns="http://www.w3.org/2000/svg">
  <path fill-rule="evenodd" clip-rule="evenodd" d="M14.4748 14.3888C15.7417 11.8297 17.2163 9.37469 18.4985 7.23982C21.1773 2.77985 23.0169 -0.282997 20.3715 0.0207366C18.1476 0.304061 15.9894 0.97105 13.9922 1.99221C14.8939 1.55072 15.8238 1.16946 16.7757 0.850934C16.7757 0.850934 8.65765 4.20089 5.62598 13.7647C6.85358 12.5806 8.19947 11.5264 9.64236 10.6189C13.5837 8.1154 12.8709 10.0077 11.3003 14.1774C10.1874 17.132 8.64373 21.23 8.01991 25.718C9.0874 24.3413 10.3708 22.363 11.8174 20.1334L11.8178 20.1327C12.2098 19.5284 12.6138 18.9057 13.0288 18.2715C13.3849 16.9316 13.8692 15.6294 14.4748 14.3829V14.3888ZM35.7114 13.2864C34.1413 12.8353 32.5092 13.753 30.8654 15.5126C30.2839 16.9319 29.6869 18.532 29.0646 20.3479C28.6027 21.6934 28.1207 23.241 27.614 24.8682C25.2456 32.4728 22.3362 41.8152 18.4034 40.3738C17.9872 40.225 17.5892 40.0293 17.2171 39.7905C16.5018 40.9784 15.8388 41.9136 15.2379 42.4872C14.7134 42.9987 14.1049 43.4156 13.4391 43.7198C22.4876 52.6537 39.1521 52.2746 38.2042 41.1748C37.0806 28.0429 37.1529 22.4805 37.2535 14.7426L37.2641 13.9202C36.7793 13.639 36.2572 13.4282 35.7134 13.2942L35.7114 13.2864ZM50.3212 19.0667C50.7445 20.9337 50.9661 22.841 50.9822 24.7556L50.99 24.7595C50.9706 25.0142 50.7516 26.5151 49.4199 26.2371C49.019 26.1662 48.6439 25.9905 48.3324 25.7277C46.3204 12.4757 38.716 -3.09392 37.4657 9.39597C36.8318 8.49967 36.2038 7.65198 35.5893 6.88594C37.297 4.86392 38.5531 4.62672 39.2723 4.51395C42.682 3.98122 48.7472 12.1432 50.3212 19.0667Z" fill="#5FC82B"/>
  <path d="M32.1688 3.51653C20.6353 -3.52751 5.9576 36.0634 4.85852 26.1088C2.02263 6.9248 16.7759 0.850952 16.7759 0.850952C7.28929 3.99676 -0.165836 13.6733 0.00280544 24.8469C0.173386 36.075 6.42088 42.5144 8.67332 43.6304C11.5247 45.0458 14.0156 43.7023 15.2445 42.4911C19.9723 37.9823 28.513 11.2255 35.7122 13.2981C43.7682 15.2423 42.7002 32.2759 43.0898 35.5423C43.8652 42.0517 45.6815 41.274 48.2111 36.4911C49.9072 33.285 51.0102 29.5909 50.985 24.7186C50.985 24.7186 50.8648 26.5423 49.411 26.2371C48.1064 25.9649 47.6179 25.2164 44.3343 20.0641C40.8955 14.6707 35.6386 5.6416 32.1688 3.52236" fill="#0C48D8"/>
  <path fill-rule="evenodd" clip-rule="evenodd" d="M124.217 32.5818C124.238 32.1121 124.045 31.6582 123.694 31.3472C123.432 31.1197 123.143 30.9972 122.56 30.9097L121.879 30.8047C121.576 30.765 121.288 30.6478 121.042 30.4645C120.847 30.2792 120.744 30.016 120.763 29.7471C120.763 29.0549 121.242 28.5922 122.071 28.5922C122.606 28.5635 123.13 28.7561 123.519 29.1249L123.946 28.6972C123.449 28.224 122.78 27.9771 122.096 28.0147C120.868 28.0147 120.108 28.7147 120.108 29.7646C120.083 30.2045 120.256 30.6324 120.579 30.9311C120.909 31.1912 121.305 31.3547 121.722 31.4036L122.445 31.5163C122.899 31.5863 123.056 31.6388 123.258 31.8138C123.464 32.018 123.572 32.3015 123.554 32.5915C123.554 33.3167 122.996 33.7464 122.089 33.7464C121.451 33.7846 120.83 33.5341 120.396 33.064L119.951 33.5345C120.532 34.1177 121.145 34.3569 122.083 34.3569C123.374 34.3569 124.229 33.6822 124.229 32.5896L124.217 32.5818ZM129.333 31.3549C129.684 31.666 129.877 32.1198 129.856 32.5895L129.86 32.5818C129.86 33.6744 129.005 34.3491 127.714 34.3491C126.776 34.3491 126.163 34.1099 125.582 33.5267L126.035 33.0717C126.469 33.5419 127.09 33.7923 127.728 33.7541C128.635 33.7541 129.193 33.3245 129.193 32.5993C129.211 32.3092 129.103 32.0257 128.896 31.8215C128.695 31.6466 128.538 31.5941 128.084 31.5241L127.361 31.4113C126.944 31.3625 126.548 31.199 126.218 30.9389C125.895 30.6402 125.722 30.2122 125.747 29.7723C125.747 28.7224 126.506 28.0225 127.735 28.0225C128.419 27.9849 129.088 28.2318 129.585 28.7049L129.158 29.1326C128.769 28.7638 128.245 28.5713 127.71 28.5999C126.881 28.5999 126.402 29.0627 126.402 29.7548C126.383 30.0238 126.486 30.2869 126.681 30.4722C126.926 30.6556 127.215 30.7727 127.518 30.8125L128.199 30.9175C128.782 31.005 129.071 31.1275 129.333 31.3549ZM163.482 32.5895C163.503 32.1198 163.31 31.666 162.959 31.3549C162.697 31.1274 162.41 31.005 161.825 30.9175L161.144 30.8125C160.841 30.7723 160.553 30.6552 160.307 30.4722C160.112 30.2869 160.009 30.0238 160.028 29.7548C160.028 29.0626 160.508 28.5999 161.336 28.5999C161.871 28.5708 162.395 28.7634 162.784 29.1326L163.213 28.7049C162.716 28.2323 162.047 27.9856 161.363 28.0225C160.132 28.0225 159.375 28.7224 159.375 29.7723C159.35 30.2122 159.523 30.6402 159.846 30.9388C160.175 31.1992 160.57 31.3628 160.987 31.4113L161.712 31.5241C162.166 31.5941 162.323 31.6466 162.522 31.8215C162.729 32.0252 162.838 32.3091 162.819 32.5992C162.819 33.3245 162.261 33.7541 161.354 33.7541C160.716 33.7923 160.095 33.5419 159.661 33.0717L159.208 33.5267C159.789 34.1099 160.404 34.3491 161.34 34.3491C162.631 34.3491 163.486 33.6744 163.486 32.5817L163.482 32.5895ZM169.379 33.7094V34.3043L165.523 34.2966V28.075H169.381V28.6699H166.186V30.8669H168.9V31.4599H166.186V33.7094H169.379ZM176 28.0827V34.3043L175.372 34.3082L172.077 29.3115V34.3043H171.414V28.0827H172.042L175.337 33.06V28.0827H176ZM158.28 33.7017V34.2966L154.438 34.285V28.0633H155.101V33.7017H158.28ZM152.408 34.2966V33.7016H149.221V31.4599H151.935V30.8669H149.221V28.6699H152.414V28.075H148.548V34.2966H152.408ZM144.493 30.9525C145.216 30.9525 145.732 30.5773 145.732 29.8151C145.732 29.0588 145.216 28.6699 144.493 28.6699H142.836V30.9525H144.493ZM146.506 34.3043L145.031 31.4774C145.842 31.3485 146.426 30.6294 146.388 29.8073C146.388 28.7302 145.628 28.075 144.547 28.075H142.172V34.2966H142.835V31.5396H144.326L145.731 34.3043H146.506ZM139.825 28.0827H140.54L138.718 31.7321V34.3082H138.055V31.736L136.206 28.0788H136.921L138.386 31.0613L139.825 28.0827ZM135.09 28.6699V28.075H130.825V28.6699H132.622V34.3082H133.285V28.6699H135.09ZM118.283 31.0439V32.0335L118.288 32.0413C118.288 32.7587 118.145 33.2389 117.757 33.6511C117.339 34.0967 116.76 34.3552 116.15 34.3683C115.539 34.3815 114.95 34.1483 114.512 33.7211C113.931 33.1262 113.931 32.5234 113.931 31.1936C113.931 29.8637 113.931 29.2493 114.512 28.666C114.933 28.2437 115.505 28.0101 116.1 28.0186C117.286 28.0186 118.089 28.7885 118.271 29.8812H117.608C117.434 29.0938 116.875 28.6135 116.1 28.6135C115.697 28.6117 115.31 28.7721 115.026 29.0588C114.635 29.4612 114.59 29.8793 114.59 31.1858C114.59 32.4923 114.638 32.922 115.026 33.3245C115.332 33.622 115.747 33.7801 116.172 33.7617C116.598 33.7433 116.997 33.55 117.277 33.2273C117.53 32.9085 117.654 32.5061 117.626 32.0996V31.6271H116.094V31.0439H118.283ZM111.71 34.3161V28.0944H111.033V33.0717L107.738 28.0944H107.11V34.3161H107.773V29.3115L111.068 34.3083L111.71 34.3161ZM104.01 28.0944H104.673V34.3161H104.01V28.0944ZM101.557 34.3161V28.0944H100.894V33.0717L97.599 28.0944H96.971V34.3161H97.6339V29.3115L100.929 34.3083L101.557 34.3161ZM94.0844 31.206L94.0844 31.1197L94.0844 31.0332C94.0851 30.2985 94.0857 29.5533 93.6754 29.1249C93.3498 28.8083 92.9068 28.6433 92.4542 28.6699H91.0973V33.7133H92.4542C92.9068 33.7399 93.3498 33.5749 93.6754 33.2583C94.0858 32.8242 94.0851 31.9489 94.0844 31.206V31.206ZM94.7484 31.1002L94.7486 30.9927C94.7502 30.1607 94.7519 29.2684 94.1378 28.6524C93.7136 28.2547 93.1479 28.0445 92.5677 28.0692H90.4354V34.2908H92.5677C93.1477 34.3145 93.7131 34.1045 94.1378 33.7075C94.7522 33.0913 94.7502 32.0629 94.7486 31.2259L94.7484 31.1197V31.1002ZM88.6246 33.6899V34.2849L84.7846 34.2732V28.0516H85.4475V33.6899H88.6246ZM82.3356 28.0633H81.6727V34.285H82.3453L82.3356 28.0633ZM78.7939 32.5564L78.7939 32.5506V32.5623L78.7939 32.5564ZM77.5456 31.4249C78.3188 31.4249 78.7913 31.8599 78.7939 32.5564C78.7913 33.253 78.3111 33.6977 77.5456 33.6977H75.8534V31.4249H77.5456ZM78.697 29.7451C78.697 30.4898 78.1659 30.83 77.4758 30.83H75.8534V28.6699H77.4758C78.1659 28.6699 78.697 29.0024 78.697 29.7451ZM78.4451 31.1021C79.0696 31.318 79.4803 31.9177 79.457 32.5798V32.5759C79.457 33.7055 78.7068 34.3004 77.6077 34.3004H75.1906V28.0788H77.5283C78.6099 28.0788 79.3601 28.699 79.3601 29.7412C79.3718 30.343 79.0058 30.8874 78.4451 31.1021ZM73.3764 28.6699V28.075H69.1119V28.6699H70.9088V34.3082H71.5717V28.6699H73.3764ZM67.3929 28.075V32.2473C67.3929 33.4897 66.4779 34.3569 65.2219 34.3569C63.9658 34.3569 63.0586 33.4897 63.0586 32.2473V28.075H63.7215V32.1949C63.7215 33.1398 64.3147 33.7619 65.2219 33.7619C66.129 33.7619 66.7299 33.1398 66.7299 32.1949V28.075H67.3929Z" fill="black"/>
  <path fill-rule="evenodd" clip-rule="evenodd" d="M97.4377 20.412C97.4582 19.9423 97.2659 19.4884 96.9143 19.1774C96.6526 18.9499 96.3658 18.8274 95.7804 18.7399L95.1 18.6349C94.7965 18.5947 94.5083 18.4776 94.2626 18.2947C94.0673 18.1094 93.9649 17.8462 93.9834 17.5773C93.9834 16.8851 94.4642 16.4224 95.2919 16.4224C95.827 16.3933 96.3505 16.5859 96.7399 16.9551L97.1683 16.5274C96.6714 16.0548 96.0027 15.808 95.319 15.8449C94.0881 15.8449 93.3302 16.5449 93.3302 17.5948C93.3055 18.0347 93.4783 18.4626 93.8012 18.7613C94.1309 19.0217 94.5261 19.1852 94.943 19.2338L95.6679 19.3465C96.1215 19.4165 96.2785 19.469 96.4782 19.644C96.6851 19.8476 96.7934 20.1315 96.7748 20.4217C96.7748 21.1469 96.2165 21.5766 95.3093 21.5766C94.6718 21.6148 94.0508 21.3643 93.6171 20.8942L93.1635 21.3491C93.745 21.9324 94.3595 22.1715 95.2957 22.1715C96.5867 22.1715 97.4416 21.4969 97.4416 20.4042L97.4377 20.412ZM142.394 20.4199C142.415 19.9501 142.223 19.4963 141.871 19.1853C141.609 18.9578 141.32 18.8353 140.737 18.7478L140.057 18.6428C139.753 18.603 139.465 18.4859 139.219 18.3026C139.024 18.1173 138.922 17.8541 138.94 17.5851C138.94 16.893 139.419 16.4302 140.249 16.4302C140.784 16.4016 141.307 16.5942 141.697 16.963L142.123 16.5352C141.627 16.0621 140.958 15.8152 140.274 15.8528C139.045 15.8528 138.285 16.5527 138.285 17.6026C138.26 18.0426 138.433 18.4705 138.756 18.7692C139.087 19.0293 139.482 19.1928 139.9 19.2416L140.623 19.3544C141.076 19.4244 141.233 19.4769 141.435 19.6519C141.641 19.8561 141.749 20.1396 141.731 20.4296C141.731 21.1548 141.173 21.5845 140.266 21.5845C139.628 21.6227 139.007 21.3722 138.574 20.902L138.12 21.3648C138.702 21.948 139.314 22.1872 140.252 22.1872C141.543 22.1872 142.398 21.5125 142.398 20.4199H142.394ZM136.293 20.0775V15.9052H135.63V20.025C135.63 20.9699 135.027 21.5921 134.12 21.5921C133.212 21.5921 132.619 20.9699 132.619 20.025V15.9052H131.956V20.0775C131.956 21.3199 132.864 22.187 134.12 22.187C135.376 22.187 136.293 21.3199 136.293 20.0775ZM130.23 15.9052V16.5001H128.427V22.1384H127.763V16.5001H125.966V15.9052H130.23ZM124.164 15.9052H123.501V22.1268H124.164V15.9052ZM121.685 21.5319V22.1268L117.84 22.1152V15.8935H118.502V21.5319H121.685ZM116.034 22.1268V21.5319H112.851V15.8935H112.188V22.1152L116.034 22.1268ZM106.816 20.1397H109.142L107.979 16.85L106.816 20.1397ZM110.538 22.1268L108.261 15.9052H107.687L105.401 22.1268H106.109L106.605 20.7172H109.319L109.815 22.1268H110.538ZM103.754 15.9052V22.1268L103.089 22.1346V19.2901H100.141V22.1268H99.4781V15.9052H100.141V18.6971H103.091V15.9052H103.754ZM91.336 15.9052V20.062L91.3302 20.0775C91.3302 21.3199 90.4152 22.187 89.1591 22.187C87.903 22.187 86.9959 21.3199 86.9959 20.0775V15.9052H87.6588V20.025C87.6588 20.9699 88.2519 21.5921 89.1591 21.5921C90.0663 21.5921 90.6672 20.9699 90.6672 20.025V15.9052H91.336ZM85.2688 16.5001V15.9052H81.0043V16.5001H82.8012V22.1384H83.4641V16.5001H85.2688ZM79.6162 21.5435V22.1384L75.7607 22.1268V15.9052H79.6162V16.5001H76.4236V18.6971H79.1374V19.2901H76.4236V21.5435H79.6162ZM73.1832 17.7251C73.1832 18.5476 72.6424 18.9675 71.8651 18.9675H70.2756V16.5003H71.8631C72.6385 16.5003 73.1812 16.9105 73.1812 17.7329L73.1832 17.7251ZM71.9253 15.9052C73.069 15.9052 73.8444 16.6129 73.8444 17.7328C73.8444 18.8527 73.0593 19.5701 71.9253 19.5701H70.2757V22.1268H69.6109V15.9052H71.9253ZM66.7338 19.0199C66.7338 20.3226 66.6911 20.7425 66.2976 21.145C66.0135 21.4312 65.6274 21.5922 65.2247 21.5922C64.822 21.5922 64.4359 21.4312 64.1518 21.145C63.7641 20.7425 63.7157 20.3226 63.7157 19.0199C63.7157 17.7173 63.7603 17.2954 64.1518 16.8929C64.7445 16.2988 65.705 16.2988 66.2976 16.8929C66.6853 17.2954 66.7338 17.7153 66.7338 19.0199ZM66.8152 16.4925C67.3968 17.0855 67.3968 17.6979 67.3968 19.02C67.3968 20.348 67.3968 20.9643 66.8152 21.5476C65.9317 22.4104 64.5237 22.4104 63.6401 21.5476C63.0586 20.9526 63.0586 20.3499 63.0586 19.02C63.0586 17.6902 63.0586 17.0758 63.6401 16.4925C64.5237 15.6296 65.9317 15.6296 66.8152 16.4925Z" fill="black"/>
</svg>
